# xmcd
#
# Track frame offsets:
# 150
# 18430
# 54992
# 76720
# 99928
# 124310
# 150015
# 178817
# 207988
# 227920
# 256173
# 275549
# 306725
# 337974
#
# Disc length: 4799 seconds
#
#
# Revision: 0
# Processed by: cddbd v1.5.2PL0 Copyright (c) Steve Scherf et al.
# Submitted via: FreeRIP 2.941 
#
DISCID=b312bd0e
DTITLE=Gov't Mule - Deja Voodoo (advance)
DYEAR=2004
DGENRE=Blues
TTITLE0=Bad Man
TTITLE1='bout to Rage
TTITLE2=Perfect Shelter
TTITLE3=Toy Brain
TTITLE4=Slackjaw Jezabel
TTITLE5=Wine and Blood
TTITLE6=Lola
TTITLE7=Silent Scream
TTITLE8=Outro Jam
TTITLE9=No Celebration
TTITLE10=Mr. Man
TTITLE11=My Seperate Reality
TTITLE12=New World Blues
TTITLE13=Mannequin's Nature
EXTD=Notes: "(Album still untitled)" \n14 track test press CDR lists two additional tracks to the official release \nhowever track 9 Outro Jam {4:25} is Silent Scream divided in parts. \nMost significantly contains the unreleased Mannequin's Nature {4:52
EXTD=} track 14. \nTrack list has several minor spelling variations to the official release, \n"Release Date September 14, 2004". \n\nStandard Jewel Case, Black Tray/Generic ATO Insert/Generic Back Insert/ Laser Label CD-R Disc\n
EXTT0=
EXTT1=
EXTT2=
EXTT3=
EXTT4=
EXTT5=
EXTT6=
EXTT7=
EXTT8=
EXTT9=
EXTT10=
EXTT11=
EXTT12=
EXTT13=
PLAYORDER=
